<?xml version="1.0" encoding="utf-8"?>
<!-- Generator: Adobe Illustrator 21.0.0, SVG Export Plug-In . SVG Version: 6.00 Build 0)  -->
<svg version="1.1" id="图层_1" xmlns="http://www.w3.org/2000/svg" xmlns:xlink="http://www.w3.org/1999/xlink" x="0px" y="0px"
	 viewBox="0 0 24 24" style="enable-background:new 0 0 24 24;" xml:space="preserve">
<style type="text/css">
	.skinbaseDark{opacity:0.8;enable-background:new    ;}
	.skinthemeDark{fill:#5789D9;}
</style>
<path class="skinbaseDark" d="M13,23h-1.4c-0.1,0-0.2,0-0.3-0.1c-0.7-0.2-0.9-0.6-1.3-0.9l-5-5H1.6C0.7,17,0,16.3,0,15.4V8.6
	C0,7.7,0.7,7,1.6,7H5l5-5c0.4-0.4,0.6-0.8,1.3-0.9C11.4,1,11.5,1,11.6,1H12l0,0l0,0h1c0.6,0,1,0.5,1,1v20C14,22.5,13.6,23,13,23z
	 M13,2.4C13,2.2,12.8,2,12.6,2H12c-0.5,0-0.9,0.2-1.1,0.4c0.1-0.1,0,0,0,0C10.8,2.6,7.3,6,5.3,8H1.6C1.3,8,1,8.3,1,8.6v6.8
	C1,15.7,1.3,16,1.6,16h3.7c2,2,5.5,5.5,5.7,5.7c0.2,0.2,0.6,0.3,1,0.3h0.6c0.2,0,0.4-0.2,0.4-0.4V2.4z M10,2C10,2,9.9,2.1,10,2
	C9.9,2,10,2,10,2z"/>
<path class="skinthemeDark" d="M18.5,20.9c-0.1,0.1-0.2,0.1-0.4,0.1c-0.3,0-0.5-0.2-0.5-0.5c0-0.2,0.1-0.4,0.3-0.5l0,0
	c3-1.5,5.1-4.5,5.1-8.1s-2.1-6.6-5.1-8.1l0,0c-0.2-0.1-0.3-0.3-0.3-0.5c0-0.3,0.2-0.5,0.5-0.5c0.1,0,0.3,0.1,0.4,0.2
	c3.3,1.6,5.5,5,5.5,8.9S21.8,19.3,18.5,20.9z M19,12c0,1.7-0.9,3.2-2.2,4.1c-0.1,0.1-0.2,0.2-0.4,0.2c-0.3,0-0.5-0.2-0.5-0.5
	c0-0.2,0.1-0.4,0.3-0.5v0c1.1-0.7,1.8-1.9,1.8-3.3c0-1.4-0.7-2.6-1.8-3.3v0c-0.2-0.1-0.3-0.3-0.3-0.5c0-0.3,0.2-0.5,0.5-0.5
	c0.2,0,0.3,0.1,0.4,0.2C18.1,8.8,19,10.3,19,12z"/>
</svg>
