<?xml version="1.0" encoding="UTF-8"?>
<svg width="21px" height="20px" viewBox="0 0 21 20" version="1.1" xmlns="http://www.w3.org/2000/svg" xmlns:xlink="http://www.w3.org/1999/xlink">
    <!-- Generator: Sketch 51.2 (57519) - http://www.bohemiancoding.com/sketch -->
    <title>从模版新建</title>
    <desc>Created with Sketch.</desc>
    <defs></defs>
    <g id="Page-1" stroke="none" stroke-width="1" fill="none" fill-rule="evenodd">
        <g id="Artboard" transform="translate(-31.000000, -26.000000)">
            <g id="从模版新建" transform="translate(29.000000, 24.000000)">
                <g id="Group" stroke-width="1">
                    <g id="新增节" transform="translate(2.000000, 2.000000)">
                        <path d="M19.9587402,10 L18.9587402,10 L18.9587402,2 C18.9587402,1.44771525 18.511025,1 17.9587402,1 L6.0300293,1 C5.47774455,1 5.0300293,1.44771525 5.0300293,2 L5.0300293,18 C5.0300293,18.5522847 5.47774455,19 6.0300293,19 L9.95874023,19 L9.95874023,20 L6.0300293,20 C4.9254598,20 4.0300293,19.1045695 4.0300293,18 L4.0300293,2 C4.0300293,0.8954305 4.9254598,2.02906125e-16 6.0300293,0 L17.9587402,0 C19.0633097,-2.02906125e-16 19.9587402,0.8954305 19.9587402,2 L19.9587402,10 Z" id="Combined-Shape" fill="#404040" fill-rule="nonzero"></path>
                        <path d="M6,1 L4,1 C3.44771525,1 3,1.44771525 3,2 L3,18 C3,18.5522847 3.44771525,19 4,19 L6,19 L6,20 L4,20 C2.8954305,20 2,19.1045695 2,18 L2,2 C2,0.8954305 2.8954305,2.02906125e-16 4,0 L6,0 L6,1 Z" id="Combined-Shape-Copy-2" fill="#404040" fill-rule="nonzero"></path>
                        <path d="M4,1 L2,1 C1.44771525,1 1,1.44771525 1,2 L1,18 C1,18.5522847 1.44771525,19 2,19 L4,19 L4,20 L2,20 C0.8954305,20 1.03797111e-16,19.1045695 0,18 L0,2 C-1.10284431e-16,0.8954305 0.8954305,2.02906125e-16 2,0 L4,0 L4,1 Z" id="Combined-Shape-Copy-3" fill="#404040" fill-rule="nonzero"></path>
                        <path d="M17,15 L20.5,15 C20.7761424,15 21,15.2238576 21,15.5 C21,15.7761424 20.7761424,16 20.5,16 L17,16 L17,19.5 C17,19.7761424 16.7761424,20 16.5,20 C16.2238576,20 16,19.7761424 16,19.5 L16,16 L12.5,16 C12.2238576,16 12,15.7761424 12,15.5 C12,15.2238576 12.2238576,15 12.5,15 L16,15 L16,11.5 C16,11.2238576 16.2238576,11 16.5,11 C16.7761424,11 17,11.2238576 17,11.5 L17,15 Z" id="Combined-Shape" fill="#5789D9"></path>
                    </g>
                </g>
                <rect id="Rectangle-15" fill="#404040" x="9" y="6" width="10" height="1"></rect>
            </g>
        </g>
    </g>
</svg>